<?xml version="1.0" standalone="no"?>
<!DOCTYPE svg PUBLIC "-//W3C//DTD SVG 20010904//EN"
 "http://www.w3.org/TR/2001/REC-SVG-20010904/DTD/svg10.dtd">
<svg version="1.0" xmlns="http://www.w3.org/2000/svg"
 width="50.000000pt" height="50.000000pt" viewBox="0 0 50.000000 50.000000"
 preserveAspectRatio="xMidYMid meet">

<g transform="translate(0.000000,50.000000) scale(0.100000,-0.100000)"
fill="#fff" stroke="none">
<path d="M170 450 c-11 -11 -20 -29 -20 -40 0 -25 34 -60 58 -60 15 0 17 9 17
60 0 51 -2 60 -17 60 -10 0 -27 -9 -38 -20z"/>
<path d="M260 450 c-11 -11 -20 -29 -20 -40 0 -26 34 -60 60 -60 26 0 60 34
60 60 0 11 -9 29 -20 40 -11 11 -29 20 -40 20 -11 0 -29 -9 -40 -20z"/>
<path d="M94 295 c-11 -29 7 -35 107 -35 59 0 99 -4 99 -10 0 -5 -7 -10 -16
-10 -9 0 -14 -7 -12 -17 2 -14 17 -19 66 -23 l62 -5 0 36 c0 24 -7 42 -23 57
-21 20 -34 22 -150 22 -102 0 -129 -3 -133 -15z"/>
<path d="M120 135 l0 -105 65 0 65 0 0 39 c0 31 -4 41 -21 46 -12 4 -29 26
-40 52 -22 51 -22 53 -11 53 4 0 18 -20 30 -45 l22 -46 83 3 c74 3 82 5 82 23
0 18 -8 20 -67 23 -63 3 -67 4 -77 32 -10 29 -12 30 -70 30 l-61 0 0 -105z"/>
<path d="M333 113 l-63 -4 0 -39 0 -40 65 0 65 0 0 45 c0 25 -1 44 -2 43 -2
-1 -31 -3 -65 -5z"/>
</g>
</svg>
